<?xml version="1.0" standalone="no"?><!DOCTYPE svg PUBLIC "-//W3C//DTD SVG 1.1//EN" "http://www.w3.org/Graphics/SVG/1.1/DTD/svg11.dtd"><svg t="1499753680070" class="icon" style="" viewBox="0 0 1024 1024" version="1.1" xmlns="http://www.w3.org/2000/svg" p-id="1561" xmlns:xlink="http://www.w3.org/1999/xlink" width="64" height="64"><defs><style type="text/css"></style></defs><path d="M752.165872 939.39509c-10.357905 0-20.766976-2.583848-30.15581-7.470135L514.397606 828.65494 304.962643 932.152129c-20.253276 10.809183-48.247864 8.91402-67.816548-5.51869-19.74674-14.204513-29.930683-39.446407-25.832342-64.055898l43.181475-224.130663L89.783863 484.698191c-18.092054-17.828041-24.520463-44.276413-16.841573-67.795059 7.452739-23.687492 27.481911-40.937364 52.176336-44.675502l228.604558-41.915645 102.468766-208.436216c11.150968-22.596647 33.511231-36.625152 58.262962-36.625152 24.63405 0 47.51006 14.432711 58.205657 36.801161l102.412484 208.144574 229.233891 40.709167c24.121374 3.619434 44.149523 20.754696 51.716872 44.676525 7.621585 23.397896 1.193175 49.851385-16.386202 67.156516L774.411525 638.446877l41.763173 223.728504c4.267187 24.842805-5.92085 50.083675-26.001187 64.687278C779.304975 934.854681 765.704213 939.39509 752.165872 939.39509L752.165872 939.39509zM514.454912 777.421069 742.494605 890.811582c7.452739 3.965312 15.019065 3.104711 20.934798-1.207501 6.090718-4.487198 9.159614-11.962449 7.910157-19.261693l-46.369074-248.28069 183.203532-172.669618c4.836145-4.7727 6.77224-12.594853 4.492314-19.609617-2.330068-7.299243-8.303106-12.419867-15.755846-13.510712l-252.392334-44.732807L531.75288 142.345985c-6.54609-13.625322-28.107151-13.568017-34.822087 0.061398L384.334365 371.425358l-251.763001 46.227858c-8.082072 1.207501-14.055111 6.383384-16.272615 13.511735-2.39249 7.184633-0.400113 15.006785 4.835122 20.239973l182.865841 170.713057-47.90915 248.741177c-1.137916 6.838755 1.87879 14.371312 7.740288 18.626219 6.203282 4.600785 14.223956 5.118578 20.652366 1.671059L514.454912 777.421069 514.454912 777.421069zM514.454912 777.421069" p-id="1562"></path></svg>