<?xml version="1.0" standalone="no"?><!DOCTYPE svg PUBLIC "-//W3C//DTD SVG 1.1//EN" "http://www.w3.org/Graphics/SVG/1.1/DTD/svg11.dtd"><svg t="1497939905840" class="icon" style="" viewBox="0 0 1024 1024" version="1.1" xmlns="http://www.w3.org/2000/svg" p-id="1246" xmlns:xlink="http://www.w3.org/1999/xlink" width="64" height="64"><defs><style type="text/css"></style></defs><path d="M125.872291 465.670835c0-189.738365 153.796782-343.535147 343.535147-343.535147 189.738365 0 343.535147 153.797805 343.535147 343.535147 0 189.737342-153.796782 343.535147-343.535147 343.535147C279.669072 809.205982 125.872291 655.408177 125.872291 465.670835zM722.799542 779.406283l182.254927 182.204785 52.816926-52.832276L776.346085 727.201294c60.066027-70.406536 96.341209-161.732521 96.341209-261.530458 0-222.731804-180.549076-403.28088-403.28088-403.28088S66.126558 242.939031 66.126558 465.670835c0 222.730781 180.549076 403.289066 403.28088 403.289066C565.398676 868.958878 653.558551 835.409784 722.799542 779.406283z" p-id="1247"></path></svg>