<?xml version="1.0" standalone="no"?><!DOCTYPE svg PUBLIC "-//W3C//DTD SVG 1.1//EN" "http://www.w3.org/Graphics/SVG/1.1/DTD/svg11.dtd"><svg t="1497939864023" class="icon" style="" viewBox="0 0 1024 1024" version="1.1" xmlns="http://www.w3.org/2000/svg" p-id="1010" xmlns:xlink="http://www.w3.org/1999/xlink" width="64" height="64"><defs><style type="text/css"></style></defs><path d="M768.73106 703.537712c-35.606921 0-67.945574 14.793214-91.167479 38.359147l-309.109357-171.670082c9.116748-17.545439 14.621199-37.155048 14.621199-58.312783 0-12.55703-2.408198-24.426004-5.676466-35.950949l304.63699-189.215522c22.705863 20.469679 52.464304 33.198723 85.146985 33.198723 70.525785 0 127.978498-57.452713 127.978498-127.978498S837.708718 63.989249 767.182933 63.989249s-127.978498 57.452713-127.978498 127.978498c0 14.621199 2.92424 28.382328 7.396607 41.455401L344.716278 420.746514c-23.049891-22.705863-54.700487-36.983034-89.791366-36.983034-70.525785 0-127.978498 57.452713-127.978498 127.978498s57.452713 127.978498 127.978498 127.978498c25.630102 0 49.540064-7.740635 69.493701-20.813707l321.150344 178.378633c-3.096254 11.008903-5.160423 22.18982-5.160423 34.058794 0 70.525785 57.452713 127.978498 127.978498 127.978498s127.978498-57.452713 127.978498-127.978498S839.256845 703.537712 768.73106 703.537712zM767.182933 127.978498c35.262893 0 63.989249 28.726356 63.989249 63.989249s-28.726356 63.989249-63.989249 63.989249-63.989249-28.726356-63.989249-63.989249S731.92004 127.978498 767.182933 127.978498zM191.107677 511.913993c0-35.262893 28.726356-63.989249 63.989249-63.989249s63.989249 28.726356 63.989249 63.989249-28.726356 63.989249-63.989249 63.989249S191.107677 547.176886 191.107677 511.913993zM768.73106 895.505459c-35.262893 0-63.989249-28.726356-63.989249-63.989249s28.726356-63.989249 63.989249-63.989249 63.989249 28.726356 63.989249 63.989249C832.720309 866.951117 803.993953 895.505459 768.73106 895.505459z" p-id="1011"></path></svg>