<?xml version="1.0" standalone="no"?><!DOCTYPE svg PUBLIC "-//W3C//DTD SVG 1.1//EN" "http://www.w3.org/Graphics/SVG/1.1/DTD/svg11.dtd"><svg t="1497939682599" class="icon" style="" viewBox="0 0 1126 1024" version="1.1" xmlns="http://www.w3.org/2000/svg" p-id="4498" xmlns:xlink="http://www.w3.org/1999/xlink" width="70.375" height="64"><defs><style type="text/css"></style></defs><path d="M1073.972622 649.537836c0-35.452587-12.19253-62.495153-36.035088-78.207691 14.467535-8.19377 35.776337-48.705119 35.776337-84.481456-1.440004-59.102644-58.622643-102.911501-144.961604-102.911501L699.825459 383.937187c39.198846-106.68901 31.806328-250.561862-17.343792-327.358299C652.882844 10.366275 617.330257 0 592.657697 0c-83.071453 0-85.791459 80.033945-85.791459 107.265262 0 91.070222-13.153782 132.574074-29.536322 170.845417-12.992532 24.77131-92.513976 106.240259-173.760424 106.240259L151.314119 384.350938c-58.785144 0-101.411498 49.21887-101.313997 119.269041L89.487718 920.289747c4.770012 64.193907 36.288839 103.071502 99.521493 103.071502 0 0 31.488827 0.260001 55.073884 0.260001 12.031279 0 23.261307-0.09875 29.916323-0.260001 19.487548-0.640002 35.552587-13.120032 49.761371-23.613808 10.048775-7.392518 18.017544-13.828784 25.248812-13.828784 3.232508 0 21.693803 10.596276 44.351358 20.225049 23.105056 9.762524 59.745146 17.856294 94.785231 17.856294l318.433277 0c106.752761 0 158.012886-40.000098 158.012886-106.68901 0-19.713798-4.541261-31.392577-15.483788-46.656364 42.846355-10.267525 80.860197-37.212591 80.860197-83.676454 0-17.251292-8.12502-44.96136-19.228797-52.317628C1031.696269 729.313031 1074.036372 691.935439 1073.972622 649.537836L1073.972622 649.537836zM272.431915 981.381146c-19.071297 0.603751-87.485214 0-87.933965 0-24.54631 0-46.303863-23.136306-51.841377-54.210132l-39.487596-433.154808c0-32.412579 26.078814-67.935166 60.893899-67.935166l0 0.225001 149.506615 0.448751c2.558756 0 5.088762-0.321251 7.617519-0.415001l0 529.888794c-6.913767 4.828762-13.378783 9.502523-17.987544 12.895031C286.8657 973.796127 276.275675 980.929895 272.431915 981.381146L272.431915 981.381146zM970.64237 706.305474l-5.791264 0 0.542501 38.657594c4.643761 1.757504 21.762553 6.908767 21.792553 40.512599 0 35.996338-47.295115 50.463873-87.133963 50.463873l0.0975 0-0.673752 36.83134c16.22504 3.613759 22.046304 17.792543 22.016304 40.448849 0 39.615097-32.192579 68.160166-115.810283 68.160166L475.918662 981.379896c-15.771289 0-47.807617-9.186272-66.268912-18.116294-17.407542-8.412521-45.312611-24.160059-54.946384-29.375072L354.703366 419.327274c82.915202-22.973806 151.36287-94.492731 168.642912-127.520311C542.130074 248.130606 551.538847 202.466744 551.538847 102.30525c0-49.761371 18.272545-56.450138 37.725092-56.450138 17.216292 0 44.575109 18.978796 58.403893 40.610099 40.9276 63.901406 50.493873 201.567992-0.420001 304.673244l-8.765021 35.678837 292.256964-0.06375c49.761371 2.720007 99.775244 23.071306 99.775244 59.776396l-0.351251 11.488778c0.16125 0.478751-1.216253 31.806328-17.891294 45.630111-13.985034 11.616278-25.312562 12.003779-25.312562 12.003779l-0.317501 38.046343c0 0 16.865041 2.270006 25.663813 8.32002 13.247532 9.087522 19.262547 26.303814 18.560045 45.11761C1030.002515 670.944138 993.201175 706.305474 970.64237 706.305474L970.64237 706.305474zM970.64237 706.305474" p-id="4499"></path></svg>