<?xml version="1.0" standalone="no"?><!DOCTYPE svg PUBLIC "-//W3C//DTD SVG 1.1//EN" "http://www.w3.org/Graphics/SVG/1.1/DTD/svg11.dtd"><svg t="1499672638839" class="icon" style="" viewBox="0 0 1024 1024" version="1.1" xmlns="http://www.w3.org/2000/svg" p-id="6374" xmlns:xlink="http://www.w3.org/1999/xlink" width="64" height="64"><defs><style type="text/css"></style></defs><path d="M322.089719 904.44816c-3.704368 0-7.435343-0.792039-10.93505-2.4017-9.274224-4.267187-15.22782-13.541411-15.22782-23.76117L295.92685 766.761288c0-13.847379-11.267625-25.115004-25.140587-25.115004L142.756331 741.646284c-42.718941 0-77.466326-34.747385-77.466326-77.440743l0-467.200678c0-42.706661 34.747385-77.454046 77.466326-77.454046l738.511897 0c42.693358 0 77.440743 34.747385 77.440743 77.454046l0 467.200678c0 42.693358-34.747385 77.440743-77.440743 77.440743L530.983353 741.646284c-6.003737 0-11.82942 2.145873-16.402575 6.080485L339.105255 898.137431C334.276273 902.302287 328.22137 904.44816 322.089719 904.44816zM142.756331 171.876556c-13.872962 0-25.140587 11.267625-25.140587 25.128307l0 467.200678c0 13.847379 11.267625 25.115004 25.140587 25.115004l128.028908 0c42.718941 0 77.466326 34.747385 77.466326 77.440743l0 54.625108 132.321678-113.415073c14.077623-12.034081 31.962969-18.650779 50.409087-18.650779l350.284875 0c13.847379 0 25.115004-11.267625 25.115004-25.115004l0-467.200678c0-13.860682-11.267625-25.128307-25.115004-25.128307L142.756331 171.876556z" p-id="6375"></path></svg>