<?xml version="1.0" standalone="no"?><!DOCTYPE svg PUBLIC "-//W3C//DTD SVG 1.1//EN" "http://www.w3.org/Graphics/SVG/1.1/DTD/svg11.dtd"><svg t="1497939882444" class="icon" style="" viewBox="0 0 1024 1024" version="1.1" xmlns="http://www.w3.org/2000/svg" p-id="1129" xmlns:xlink="http://www.w3.org/1999/xlink" width="64" height="64"><defs><style type="text/css"></style></defs><path d="M847.743 223.953H640.639c-3.132-68.921-60.177-124.029-129.858-124.029s-126.726 55.108-129.858 124.029H173.256c-17.673 0-32 14.327-32 32s14.327 32 32 32h674.487c17.673 0 32-14.327 32-32s-14.327-32-32-32z m-336.962-60.03c34.379 0 62.689 26.426 65.718 60.029H445.064c3.029-33.603 31.338-60.029 65.717-60.029zM767.743 351.79c-17.673 0-32 14.327-32 32v478.173H288.256V383.79c0-17.673-14.327-32-32-32s-32 14.327-32 32v510.173c0 17.673 14.327 32 32 32h511.487c17.673 0 32-14.327 32-32V383.79c0-17.673-14.327-32-32-32z" fill="" p-id="1130"></path><path d="M449.306 732.802V448.208c0-17.673-14.327-32-32-32s-32 14.327-32 32v284.593c0 17.673 14.327 32 32 32s32-14.326 32-31.999zM640.84 732.802V448.208c0-17.673-14.327-32-32-32s-32 14.327-32 32v284.593c0 17.673 14.327 32 32 32s32-14.326 32-31.999z" fill="" p-id="1131"></path></svg>