<?xml version="1.0" standalone="no"?><!DOCTYPE svg PUBLIC "-//W3C//DTD SVG 1.1//EN" "http://www.w3.org/Graphics/SVG/1.1/DTD/svg11.dtd"><svg t="1497939924724" class="icon" style="" viewBox="0 0 1024 1024" version="1.1" xmlns="http://www.w3.org/2000/svg" p-id="1484" xmlns:xlink="http://www.w3.org/1999/xlink" width="64" height="64"><defs><style type="text/css"></style></defs><path d="M511.913993 607.897867c-52.980346 0-95.983874-43.003528-95.983874-95.983874s43.003528-95.983874 95.983874-95.983874 95.983874 43.003528 95.983874 95.983874S564.894339 607.897867 511.913993 607.897867zM511.913993 479.919368c-17.545439 0-31.994625 14.449185-31.994625 31.994625s14.449185 31.994625 31.994625 31.994625 31.994625-14.449185 31.994625-31.994625S529.631446 479.919368 511.913993 479.919368z" p-id="1485"></path><path d="M630.947757 960.010751c-9.976818 0-19.781623-4.816395-25.802117-13.073072L531.695616 846.309424c-13.589115 0.860071-25.974131 0.860071-39.563245 0l-73.450025 100.456241c-7.912649 10.836889-21.673778 15.653284-34.574836 11.868974-34.574836-9.804804-67.429531-23.393919-97.704015-40.251302-11.69696-6.536536-18.061482-19.609609-15.997312-32.854695l19.26558-123.334117c-9.804804-8.77272-19.093566-18.061482-27.866286-27.866286l-123.334117 19.26558c-13.073072 2.064169-26.318159-4.300353-32.854695-15.997312-16.857383-30.446498-30.446498-63.301193-40.251302-97.876029-3.612296-12.901058 1.032085-26.662187 11.868974-34.574836l100.456241-73.450025c-0.516042-6.880564-0.688056-13.417101-0.688056-19.781623s0.172014-12.901058 0.688056-19.781623l-100.456241-73.450025c-10.836889-7.912649-15.653284-21.673778-11.868974-34.574836 9.804804-34.574836 23.393919-67.429531 40.251302-97.704015 6.536536-11.69696 19.781623-18.061482 32.854695-15.997312l123.334117 19.26558c8.77272-9.804804 18.061482-19.093566 27.866286-27.866286l-19.26558-123.334117c-2.064169-13.245087 4.300353-26.318159 16.169326-32.854695 30.446498-16.857383 63.301193-30.446498 97.704015-40.251302 12.901058-3.612296 26.662187 1.032085 34.574836 11.868974l73.450025 100.456241c13.589115-0.860071 25.802117-0.860071 39.563245 0l73.450025-100.456241c7.912649-10.836889 21.673778-15.48127 34.574836-11.868974 34.402822 9.804804 67.257517 23.393919 97.704015 40.251302 11.69696 6.536536 18.061482 19.609609 15.997312 32.854695l-19.26558 123.334117c9.804804 8.77272 19.093566 18.061482 27.866286 27.694272l123.334117-19.26558c13.073072-2.064169 26.318159 4.300353 32.854695 15.997312 16.857383 30.446498 30.446498 63.301193 40.423316 97.876029 3.612296 12.901058-1.032085 26.662187-11.868974 34.574836L846.309424 492.13237c0.516042 6.880564 0.688056 13.417101 0.688056 19.781623 0 6.364522-0.172014 12.901058-0.688056 19.781623l100.456241 73.450025c10.836889 7.912649 15.48127 21.673778 11.868974 34.574836-9.804804 34.574836-23.393919 67.429531-40.423316 97.876029-6.536536 11.69696-19.437594 18.061482-32.854695 15.997312L762.194524 734.500252c-8.600706 9.804804-18.061482 19.093566-27.866286 27.694272l19.26558 123.334117c2.064169 13.245087-4.300353 26.318159-15.997312 32.854695-30.274483 16.857383-63.129179 30.446498-97.704015 40.251302C636.968251 959.494709 634.044011 960.010751 630.947757 960.010751zM337.147657 872.627583c13.933143 6.70855 28.554342 12.729044 43.51957 17.889467l70.525785-96.499916c6.70855-9.288762 18.061482-14.277171 29.414413-12.901058 20.641693 2.408198 42.143457 2.408198 62.613136 0 11.868974-1.376113 22.705863 3.612296 29.414413 12.901058l70.525785 96.499916c14.965228-5.160423 29.586427-11.180917 43.51957-17.889467l-18.40551-118.345708c-1.720141-11.352931 2.752226-22.877877 11.69696-29.930455 16.341341-13.073072 31.306568-27.866286 44.207626-44.207626 7.224593-8.944734 18.40551-13.589115 29.930455-11.69696l118.345708 18.40551c6.70855-13.933143 12.729044-28.554342 17.889467-43.51957l-96.499916-70.525785c-9.288762-6.70855-14.277171-18.061482-12.901058-29.414413 1.204099-10.320847 1.892155-20.641693 1.892155-31.306568s-0.688056-20.985721-1.892155-31.306568c-1.376113-11.352931 3.612296-22.705863 12.901058-29.414413l96.499916-70.525785c-5.160423-14.965228-11.180917-29.586427-17.889467-43.51957l-118.345708 18.40551c-11.352931 1.720141-22.877877-2.752226-29.930455-11.69696-12.901058-16.169326-27.694272-31.134554-44.207626-44.207626-8.944734-7.224593-13.417101-18.577524-11.69696-29.930455L686.852343 151.372417c-13.933143-6.70855-28.554342-12.729044-43.51957-17.889467l-70.525785 96.499916c-6.70855 9.288762-17.717453 14.449185-29.414413 12.901058-20.469679-2.408198-41.971443-2.408198-62.613136 0-11.524945 1.376113-22.705863-3.612296-29.586427-12.901058l-70.525785-96.499916c-14.965228 5.160423-29.586427 11.180917-43.51957 17.889467l18.40551 118.345708c1.720141 11.352931-2.752226 22.877877-11.69696 29.930455-16.341341 12.901058-31.134554 27.866286-44.207626 44.207626-7.224593 8.944734-18.577524 13.417101-29.930455 11.69696L151.372417 337.147657c-6.70855 13.933143-12.729044 28.554342-17.889467 43.51957l96.499916 70.525785c9.288762 6.70855 14.277171 18.061482 12.901058 29.586427-1.204099 10.148833-1.892155 20.641693-1.892155 31.134554 0 10.664875 0.688056 20.985721 1.892155 31.306568 1.376113 11.524945-3.612296 22.705863-12.901058 29.586427l-96.499916 70.525785c5.160423 14.965228 11.180917 29.586427 17.889467 43.51957l118.345708-18.40551c11.352931-1.720141 22.877877 2.752226 29.930455 11.69696 12.901058 16.341341 27.694272 31.134554 44.207626 44.207626 8.944734 7.224593 13.589115 18.577524 11.69696 29.930455L337.147657 872.627583z" p-id="1486"></path></svg>